<?xml version="1.0" encoding="utf-8"?>
<!-- Generator: Adobe Illustrator 25.2.1, SVG Export Plug-In . SVG Version: 6.00 Build 0)  -->
<svg version="1.1" id="Слой_1" xmlns="http://www.w3.org/2000/svg" xmlns:xlink="http://www.w3.org/1999/xlink" x="0px" y="0px"
	 viewBox="0 0 1080 1080" style="enable-background:new 0 0 1080 1080;" xml:space="preserve">
<style type="text/css">
	.st0{fill:#FABD44;}
	.st1{fill:#FFFFFF;}
</style>
<g>
	<path class="st1" d="M164.2,970.9c-16.3-17.6-29.5-31.9-46.5-50.2c86.5-87.3,171.5-173,258.5-260.7
		c-63.6-89.8-88.6-185.2-60.4-290.5c20.4-76.5,62.7-138.4,127.5-184.1c134.7-95.1,313.9-78.1,427.3,40.2
		c113.1,118.1,122.8,298,21.7,428.8c-56,72.5-131.4,114-221.8,125.2c-88.6,11-168.6-15.2-244.6-70.3
		C339.4,795.9,253.8,881.3,164.2,970.9z M635.8,191.4c-142.4-1.2-261.7,115.3-263.6,257.5c-1.9,142.5,114,262.4,256.1,265.1
		c144.5,2.7,265.9-115.8,266.4-260.2C895.2,311.3,778.2,192.7,635.8,191.4z"/>
	<path class="st1" d="M633.2,648C577.7,593,532.5,534.5,508.9,462.2c-29.2-89.5,37.9-177.5,130.7-173.8
		c87.1,3.5,146.4,90.2,117.9,175.1C733.5,535.4,688.9,594.1,633.2,648z M697.6,421.4c0.8-33.1-26.7-63.3-60-65.7
		c-34.9-2.5-67.5,27.4-68.4,62.7c-0.8,33.1,26.7,63.3,60,65.7C664.1,486.7,696.8,456.8,697.6,421.4z"/>
</g>
</svg>
