<?xml version="1.0" encoding="utf-8"?>
<!-- Generator: Adobe Illustrator 25.2.1, SVG Export Plug-In . SVG Version: 6.00 Build 0)  -->
<svg version="1.1" id="Слой_1" xmlns="http://www.w3.org/2000/svg" xmlns:xlink="http://www.w3.org/1999/xlink" x="0px" y="0px"
	 viewBox="0 0 1080 1080" style="enable-background:new 0 0 1080 1080;" xml:space="preserve">
<style type="text/css">
	.st0{fill:#FFFFFF;}
</style>
<path class="st0" d="M665.09,156.2l-19.95-40.33c-13.06-26.22-44.9-37.04-71.11-23.98l-337.3,167.16h51.58L665.09,156.2z
	 M849.76,259.05l-16.56-60.71c-6.37-23.67-27.8-39.17-51.15-39.17c-4.67,0-9.34,0.64-14.01,1.91l-88.51,24.2L409.2,259.05H849.76z
	 M552.91,702.26V584.24c0-24.41,9.76-46.59,25.58-62.83c14.01-14.43,32.8-24.2,53.81-26.64c3.51-0.43,7.12-0.64,10.73-0.64h315
	V349.26c0.1-29.3-23.66-53.07-52.96-53.07H120.62c-16.76,0-31.74,7.75-41.5,19.95c-4.45,5.63-7.86,12.1-9.76,19.21
	c-1.17,4.46-1.91,9.13-1.91,13.91v591.27c0,29.29,23.78,53.07,53.07,53.07h784.44c29.3,0,53.07-23.78,53.07-53.07V792.48h-314.9
	C593.34,792.48,552.91,752.04,552.91,702.26z M995.27,544.86c-5.31-4.88-11.56-8.6-18.57-11.04c-5.41-1.8-11.14-2.86-17.19-2.86
	H643.12c-29.3,0-53.07,23.78-53.07,53.07v118.13c0,29.29,23.77,53.07,53.07,53.07h316.39c6.05,0,11.78-1.06,17.19-2.87
	c7.01-2.33,13.27-6.15,18.57-11.04c10.61-9.66,17.3-23.67,17.3-39.16V584.03C1012.58,568.53,1005.89,554.52,995.27,544.86z
	 M753.93,653.65c0,14.65-11.89,26.53-26.53,26.53h-17.62c-14.64,0-26.53-11.89-26.53-26.53v-17.62c0-8.49,3.93-16.02,10.19-20.8
	c4.56-3.5,10.19-5.73,16.34-5.73h17.62c14.64,0,26.53,11.89,26.53,26.53V653.65z"/>
</svg>
