<?xml version="1.0" encoding="utf-8"?>
<!-- Generator: Adobe Illustrator 25.2.1, SVG Export Plug-In . SVG Version: 6.00 Build 0)  -->
<svg version="1.1" id="Слой_1" xmlns="http://www.w3.org/2000/svg" xmlns:xlink="http://www.w3.org/1999/xlink" x="0px" y="0px"
	 viewBox="0 0 1080 1080" style="enable-background:new 0 0 1080 1080;" xml:space="preserve">
<style type="text/css">
	.st0{fill:#FABD44;}
	.st1{fill-rule:evenodd;clip-rule:evenodd;fill:#FFFFFF;}
</style>
<path class="st1" d="M1018.7,489.6c-1.4-12.8-16.3-22.3-29.2-22.3c-41.6,0-78.5-24.4-93.9-62.1C879.8,366.5,890,321.4,921,293
	c9.8-8.9,10.9-23.8,2.8-34.2c-21.3-27-45.5-51.4-71.9-72.6c-10.3-8.3-25.5-7.2-34.5,2.8c-27,29.9-75.6,41.1-113.1,25.4
	c-39.1-16.4-63.7-56-61.3-98.5c0.8-13.3-8.9-24.9-22.3-26.5c-33.9-3.9-68.1-4-102-0.3c-13.2,1.5-22.9,12.8-22.5,26
	c1.5,42.1-23.5,80.9-62.1,96.8c-37.1,15.1-85.3,4.1-112.3-25.6c-8.9-9.8-23.8-11-34.2-2.9c-27.2,21.3-51.9,45.7-73.4,72.5
	c-8.4,10.4-7.1,25.5,2.7,34.5c31.6,28.6,41.8,74.1,25.4,113.2c-15.7,37.3-54.4,61.3-98.7,61.3c-14.4-0.5-24.6,9.2-26.2,22.3
	c-4,34.1-4,68.8-0.2,103.1c1.4,12.8,16.8,22.3,29.7,22.3c39.5-1,77.4,23.5,93.3,62.2c15.9,38.7,5.7,83.7-25.4,112.2
	c-9.7,8.9-10.9,23.8-2.8,34.2c21.1,26.8,45.3,51.3,71.8,72.6c10.4,8.4,25.5,7.2,34.5-2.7c27.1-30,75.7-41.1,113.1-25.4
	c39.2,16.4,63.8,56,61.4,98.5c-0.8,13.4,9,25,22.3,26.5c17.3,2,34.8,3,52.2,3c16.6,0,33.2-0.9,49.8-2.8c13.2-1.5,22.9-12.8,22.5-26
	c-1.5-42,23.5-80.9,62.1-96.7c37.3-15.2,85.4-4.1,112.3,25.6c9,9.8,23.8,10.9,34.2,2.9c27.1-21.3,51.8-45.7,73.4-72.6
	c8.4-10.4,7.2-25.5-2.7-34.5c-31.6-28.6-41.8-74.1-25.4-113.1c15.4-36.8,52.7-61.5,92.8-61.5l5.6,0.1c13,1.1,25-9,26.5-22.2
	C1022.5,558.7,1022.6,524,1018.7,489.6L1018.7,489.6z M568.7,692.3c-83.4,0-151.3-67.9-151.3-151.3c0-83.4,67.9-151.3,151.3-151.3
	c83.4,0,151.3,67.9,151.3,151.3C720,624.4,652.1,692.3,568.7,692.3L568.7,692.3z M568.7,692.3"/>
</svg>
